<?xml version="1.0" encoding="utf-8"?>
<svg version="1.1" xmlns:xlink="http://www.w3.org/1999/xlink" width="30px" height="30px" xmlns="http://www.w3.org/2000/svg">
  <g transform="matrix(1 0 0 1 -60 -4683 )">
    <path d="M 75 4683  C 83.4 4683  90 4689.6  90 4698  C 90 4706.4  83.4 4713  75 4713  C 66.6 4713  60 4706.4  60 4698  C 60 4689.6  66.6 4683  75 4683  Z " fill-rule="nonzero" fill="#ffffff" stroke="none" />
    <path d="M 75 4683.5  C 83.12 4683.5  89.5 4689.88  89.5 4698  C 89.5 4706.12  83.12 4712.5  75 4712.5  C 66.88 4712.5  60.5 4706.12  60.5 4698  C 60.5 4689.88  66.88 4683.5  75 4683.5  Z " stroke-width="1" stroke="#797979" fill="none" />
  </g>
</svg>